<?xml version="1.0" standalone="no"?>
<!DOCTYPE svg PUBLIC "-//W3C//DTD SVG 20010904//EN"
 "http://www.w3.org/TR/2001/REC-SVG-20010904/DTD/svg10.dtd">
<svg version="1.0" xmlns="http://www.w3.org/2000/svg"
 width="1728.000000pt" height="1248.000000pt" viewBox="0 0 1728.000000 1248.000000"
 preserveAspectRatio="xMidYMid meet">

<g transform="translate(0.000000,1248.000000) scale(0.100000,-0.100000)"
fill="#000000" stroke="none">
<path d="M2146 8647 c-33 -44 -82 -152 -91 -202 -4 -22 -23 -61 -41 -86 -41
-57 -59 -98 -78 -181 -8 -34 -26 -94 -40 -133 -14 -38 -26 -88 -26 -111 0 -22
-4 -44 -9 -50 -18 -18 -41 -119 -41 -180 0 -35 -5 -75 -11 -91 -11 -27 -31
-250 -32 -358 -1 -93 11 -233 22 -254 6 -11 11 -47 11 -80 0 -33 6 -80 14
-103 8 -24 17 -65 21 -93 4 -27 16 -68 28 -90 11 -22 24 -66 28 -98 4 -36 17
-73 33 -97 14 -22 26 -49 26 -60 0 -30 24 -81 54 -115 14 -16 26 -36 26 -43 0
-17 44 -83 69 -104 12 -10 21 -25 21 -34 0 -17 181 -204 198 -204 6 0 34 -20
62 -44 29 -25 65 -48 79 -51 15 -3 39 -21 54 -40 30 -38 83 -68 134 -78 18 -4
41 -15 52 -26 29 -29 113 -52 212 -58 102 -7 210 14 308 58 35 16 66 27 69 25
8 -8 -52 -85 -71 -92 -26 -8 -15 -28 16 -32 15 -2 27 -7 27 -12 0 -19 -52 -69
-92 -89 l-42 -20 38 -16 38 -16 -27 -29 c-15 -16 -44 -37 -64 -46 l-36 -17 30
-13 c17 -7 40 -13 53 -14 12 0 22 -3 22 -7 -1 -11 -41 -39 -67 -47 -28 -9 -29
-23 -3 -31 11 -3 20 -12 20 -18 0 -30 -105 -225 -138 -258 -20 -20 -42 -43
-49 -51 -6 -9 -28 -19 -47 -22 -34 -6 -41 -3 -102 49 -37 31 -75 55 -88 55
-12 0 -40 -14 -63 -30 l-41 -30 -86 99 c-81 93 -181 188 -271 258 -48 37 -145
95 -145 86 0 -3 13 -29 30 -58 16 -29 41 -83 55 -120 l26 -68 -33 7 c-85 18
-149 26 -210 26 -64 0 -87 -11 -52 -24 82 -31 327 -260 443 -413 78 -104 93
-109 162 -54 69 55 85 54 79 -3 -2 -18 4 -33 33 -95 7 -13 21 -29 32 -35 11
-6 26 -19 33 -28 7 -10 22 -18 32 -18 11 0 30 -11 44 -25 27 -27 82 -34 130
-15 22 8 37 2 103 -37 89 -52 206 -110 276 -137 26 -10 47 -22 47 -28 0 -22
-114 -183 -166 -236 -41 -41 -52 -57 -42 -63 22 -14 97 -22 149 -16 49 6 67
-6 29 -18 -33 -11 -22 -24 23 -27 74 -5 170 11 221 37 27 14 51 24 53 21 2 -2
-17 -22 -43 -44 l-47 -40 55 -7 c59 -7 163 13 205 41 31 19 29 3 -2 -26 -37
-35 -31 -46 26 -53 98 -12 220 31 276 97 24 28 64 106 78 151 5 15 11 7 30
-38 57 -141 152 -209 296 -210 96 -1 107 6 74 45 -34 41 -31 51 8 28 46 -27
136 -44 191 -36 25 4 46 10 46 14 0 4 -13 16 -30 25 -16 10 -34 27 -40 37 -9
17 -3 16 47 -8 50 -23 73 -27 163 -30 l105 -2 -30 25 -30 25 57 -6 c58 -7 133
0 157 15 10 6 2 19 -34 52 -51 47 -101 111 -152 196 -34 55 -32 63 17 78 35
10 233 109 302 151 46 28 61 33 77 25 42 -23 124 -8 144 25 4 8 17 14 27 14
11 0 27 8 37 18 10 11 26 22 36 25 23 8 57 88 57 133 0 50 21 51 83 5 29 -23
61 -41 69 -41 17 0 44 29 167 179 46 56 116 131 155 167 74 68 206 164 225
164 6 0 11 5 11 10 0 15 -141 12 -226 -6 -42 -8 -78 -13 -81 -10 -9 9 45 138
83 198 13 21 24 40 24 43 0 13 -83 -39 -165 -103 -87 -67 -218 -195 -301 -295
l-41 -49 -46 32 c-56 40 -73 37 -152 -30 -54 -45 -63 -50 -95 -44 -55 10 -121
89 -185 222 -30 63 -55 115 -55 118 0 2 6 4 13 4 7 0 18 5 24 11 9 9 1 17 -30
33 -46 25 -59 46 -28 46 25 0 71 20 71 32 0 4 -6 8 -13 8 -21 0 -97 58 -97 74
0 8 14 17 30 21 36 8 38 18 6 33 -35 16 -96 72 -96 88 0 8 10 14 23 14 39 0
37 9 -9 55 -55 56 -61 97 -9 62 28 -18 105 -46 173 -63 121 -29 303 -9 368 41
17 13 44 27 60 31 50 12 123 53 140 79 9 14 36 34 60 44 24 11 59 36 79 55 20
20 42 36 50 36 14 0 89 66 96 85 2 6 21 23 42 38 21 16 46 45 55 65 9 21 33
56 54 80 20 24 40 56 43 72 3 15 16 36 27 46 27 24 57 91 58 126 0 15 5 30 11
34 18 11 49 93 49 130 0 19 9 51 20 71 10 20 22 57 25 82 3 25 15 76 27 114
13 41 18 80 15 101 -3 19 1 55 9 81 24 83 21 535 -5 600 -7 16 -14 66 -16 111
-2 45 -11 99 -20 121 -9 21 -23 74 -31 118 -9 44 -25 100 -36 125 -11 25 -26
75 -33 112 -15 71 -40 128 -78 174 -13 16 -31 58 -41 94 -23 87 -105 235 -120
219 -3 -2 0 -42 6 -89 20 -177 -16 -404 -86 -537 -102 -193 -273 -353 -482
-449 -40 -19 -131 -50 -201 -70 -298 -83 -356 -119 -431 -270 -55 -110 -101
-152 -145 -131 -21 10 -24 17 -20 42 6 34 -5 47 -52 62 -19 6 -31 17 -33 31
-2 14 -13 24 -30 28 -27 7 -82 51 -82 66 0 5 11 14 25 20 30 14 33 28 5 28
-11 0 -37 15 -57 34 l-37 33 35 18 34 18 -30 10 c-29 9 -85 54 -85 68 0 3 14
12 30 19 l30 12 -40 20 c-22 11 -40 23 -40 27 0 3 24 15 53 26 50 19 65 39 29
41 -9 1 -23 2 -30 3 -22 2 -51 83 -61 172 -11 94 -25 141 -54 183 l-20 29 28
20 c35 26 77 122 44 102 -7 -5 -8 5 -3 31 l7 38 -26 -17 c-26 -17 -32 -15 -27
8 6 28 0 87 -11 107 -12 23 -12 23 -24 -12 -6 -18 -24 -43 -39 -54 -26 -20
-39 -21 -237 -18 -226 4 -235 2 -281 -52 l-18 -21 -21 25 c-15 18 -19 33 -16
57 7 41 -6 42 -34 4 -18 -25 -26 -29 -55 -24 -18 3 -41 2 -51 -2 -16 -6 -15
-8 10 -21 15 -8 27 -19 27 -24 0 -14 -12 -12 -38 6 -21 14 -22 14 -22 -10 0
-14 5 -28 10 -31 22 -14 9 -27 -20 -21 -28 5 -30 4 -20 -14 5 -10 15 -22 20
-25 15 -9 12 -25 -5 -25 -27 0 -88 -37 -121 -72 -50 -52 -67 -95 -71 -178 l-4
-75 22 25 c12 14 30 36 41 50 17 22 21 23 31 9 35 -45 55 -67 85 -88 44 -31
128 -38 208 -17 84 22 101 20 120 -10 16 -24 16 -26 -3 -46 -13 -12 -41 -23
-74 -27 l-54 -8 37 -16 c21 -10 47 -17 58 -17 33 0 23 -17 -20 -36 l-41 -18
31 -16 31 -16 -21 -26 c-11 -15 -36 -33 -55 -39 -41 -15 -44 -25 -10 -33 32
-8 31 -17 -4 -55 -19 -20 -39 -31 -58 -32 -25 0 -26 -1 -10 -12 54 -35 53 -33
32 -57 -11 -13 -39 -31 -62 -41 -29 -12 -42 -25 -45 -41 -2 -13 -10 -23 -18
-24 -8 -1 -22 -2 -31 -2 -20 -2 -39 -44 -33 -69 4 -14 -2 -23 -22 -31 -23 -11
-30 -10 -47 5 -38 33 -56 57 -96 134 -43 80 -104 145 -168 177 -37 19 -110 43
-223 75 -139 40 -194 58 -247 84 -297 141 -498 390 -549 678 -15 87 -18 284
-5 353 10 51 1 53 -33 9z m-1 -119 c-13 -128 23 -341 79 -464 61 -133 216
-310 349 -397 98 -65 235 -123 392 -166 254 -71 315 -109 380 -238 22 -43 60
-99 85 -125 25 -26 50 -61 57 -77 l11 -31 -89 0 -89 0 0 -213 c0 -200 -1 -215
-20 -237 -25 -29 -25 -33 0 -20 19 10 20 8 20 -39 0 -44 -3 -49 -25 -55 -14
-4 -35 -2 -46 5 -31 16 -35 3 -4 -17 20 -13 29 -14 38 -5 6 6 17 11 24 11 18
0 18 -138 0 -159 -8 -9 -24 -34 -37 -56 l-23 -40 36 34 37 35 0 -105 0 -105
-37 -36 c-81 -77 -169 -127 -328 -183 -11 -4 -15 -9 -8 -12 14 -5 110 26 176
57 27 13 81 47 120 76 69 50 72 51 80 31 7 -18 2 -28 -29 -55 -123 -107 -468
-190 -681 -163 -88 10 -173 37 -173 53 0 5 19 5 43 1 23 -5 105 -8 182 -8 164
1 225 16 383 95 87 43 230 148 239 175 2 6 -20 11 -49 12 -45 1 -57 -3 -92
-32 -61 -50 -189 -115 -275 -141 -59 -17 -69 -23 -43 -23 65 -2 236 72 331
143 36 27 61 33 61 17 0 -14 -115 -94 -190 -131 -204 -102 -430 -124 -625 -60
-64 21 -131 58 -122 66 3 3 41 -2 84 -12 100 -23 262 -23 360 -1 133 31 296
99 395 165 42 27 41 32 -14 50 -34 12 -39 11 -80 -17 -103 -69 -272 -131 -360
-131 -21 0 -38 -4 -38 -10 0 -34 209 17 340 83 129 64 120 61 120 48 0 -26
-198 -117 -333 -153 -109 -29 -299 -31 -403 -5 -81 21 -168 67 -185 99 -10 19
-9 20 7 13 57 -23 143 -46 219 -56 94 -13 206 -4 335 28 82 20 233 79 283 110
l39 24 -39 20 -38 19 -45 -24 c-106 -57 -245 -95 -360 -97 l-75 -1 60 -9 c81
-12 198 9 311 56 113 46 124 50 124 38 0 -6 -33 -25 -72 -43 -260 -116 -531
-130 -725 -39 -56 27 -113 77 -113 100 0 11 13 12 25 1 15 -13 93 -40 165 -57
93 -21 283 -19 390 4 94 21 222 65 258 89 23 15 23 16 6 29 -11 7 -25 17 -32
23 -9 8 -36 2 -101 -25 -103 -41 -168 -55 -260 -56 -36 0 -84 -4 -106 -9 -28
-6 1 -8 100 -6 127 3 149 6 235 35 52 18 101 35 108 37 6 3 12 1 12 -5 0 -29
-187 -86 -331 -102 -232 -25 -493 54 -546 166 -9 19 -14 37 -11 40 3 3 23 -6
44 -20 190 -129 454 -146 744 -48 88 30 100 38 69 48 -13 4 -34 16 -45 27 -21
19 -22 19 -75 -2 -81 -31 -182 -52 -289 -59 l-95 -7 60 -8 c70 -9 217 12 309
44 52 18 62 18 74 6 13 -12 5 -17 -57 -36 -180 -53 -393 -64 -506 -26 -140 48
-253 127 -286 200 -24 53 -14 64 25 28 148 -141 419 -191 686 -125 62 15 148
52 123 53 -6 0 -25 12 -42 26 -23 19 -34 23 -49 15 -10 -5 -58 -17 -108 -27
-87 -16 -241 -15 -318 2 -19 5 -27 3 -23 -4 4 -5 46 -15 94 -22 96 -14 228 -8
309 13 51 13 74 12 74 -3 0 -20 -196 -60 -296 -60 -188 0 -409 95 -489 210
-27 39 -57 111 -49 119 3 3 26 -16 52 -41 63 -60 149 -111 247 -144 72 -25 94
-28 225 -28 134 -1 246 13 279 34 9 5 6 15 -13 35 l-25 27 -101 -12 c-108 -13
-217 -8 -308 16 -30 8 -57 12 -60 9 -3 -2 1 -7 9 -9 8 -2 39 -13 69 -23 45
-15 85 -18 222 -17 92 0 165 -3 162 -7 -20 -33 -300 -40 -417 -9 -126 33 -267
120 -321 199 -32 46 -69 139 -62 156 2 7 35 -17 78 -59 155 -152 412 -235 632
-206 44 6 85 15 90 20 4 4 -1 17 -13 29 -12 12 -21 25 -21 30 0 5 -41 6 -91 3
-102 -6 -195 8 -308 45 -86 28 -103 25 -32 -6 88 -37 163 -53 290 -60 131 -6
171 -23 85 -35 -161 -22 -353 22 -511 116 -110 65 -202 180 -218 273 l-8 40
35 -45 c47 -61 111 -112 200 -160 145 -78 229 -100 411 -107 161 -6 169 -3
124 48 -21 24 -32 26 -128 32 -112 6 -201 29 -308 79 -34 16 -65 28 -67 26 -2
-2 21 -18 50 -35 78 -47 197 -83 319 -95 138 -15 139 -34 2 -31 -124 3 -232
30 -350 88 -201 98 -295 215 -295 367 0 32 3 58 8 58 4 0 16 -19 27 -42 26
-55 132 -167 200 -212 179 -120 389 -190 507 -171 36 6 36 7 22 33 -8 15 -14
32 -14 39 0 6 -21 15 -47 18 -135 18 -291 75 -389 141 -46 32 -56 25 -12 -8
100 -74 226 -128 358 -152 49 -9 66 -17 68 -30 4 -17 -2 -18 -68 -12 -88 9
-169 34 -277 86 -96 47 -224 141 -271 199 -76 94 -112 214 -98 324 8 62 20 73
31 30 38 -151 239 -366 430 -457 81 -40 203 -76 253 -76 29 0 33 3 27 18 -4 9
-10 29 -13 44 -3 23 -12 30 -46 38 -163 42 -310 121 -435 235 -45 40 -45 40
-21 6 33 -47 169 -152 248 -191 37 -18 103 -45 147 -60 52 -18 81 -33 83 -44
5 -23 -22 -21 -126 13 -186 61 -358 196 -466 365 -64 99 -91 201 -80 303 3 35
10 60 14 58 5 -3 14 -29 20 -58 26 -129 150 -307 290 -421 109 -89 240 -154
343 -172 l37 -6 0 46 c0 35 -4 48 -17 53 -67 23 -180 77 -230 109 -32 21 -100
79 -152 129 l-95 90 47 -61 c82 -108 190 -191 339 -261 56 -26 78 -42 78 -55
0 -15 -5 -17 -27 -12 -253 60 -524 323 -587 570 -27 103 -16 255 20 294 12 12
14 9 14 -24 0 -20 11 -71 25 -112 91 -270 308 -521 527 -610 72 -30 103 -32
89 -6 -5 10 -12 38 -15 63 -2 24 -5 45 -5 47 -1 1 -6 2 -12 2 -6 0 -47 21 -91
48 -94 55 -200 149 -265 236 -26 33 -48 63 -50 65 -2 2 -6 2 -9 -1 -8 -9 62
-106 125 -171 65 -68 142 -129 224 -178 47 -28 57 -38 57 -61 0 -16 -5 -28
-10 -28 -21 0 -137 64 -190 105 -308 240 -467 669 -328 885 l23 35 6 -100 c9
-135 23 -193 75 -303 85 -183 204 -327 342 -416 66 -43 170 -91 179 -83 2 2
-4 18 -14 35 -15 26 -16 36 -6 62 11 30 10 32 -19 48 -137 75 -234 160 -329
285 -68 91 -77 89 -18 -4 70 -109 156 -193 277 -271 63 -41 66 -46 56 -85 -5
-19 -10 -20 -31 -12 -49 18 -174 113 -230 172 -105 114 -206 298 -238 432 -24
102 -22 293 3 365 49 139 68 157 57 58z m4088 -36 c29 -79 31 -314 3 -412 -23
-81 -78 -193 -140 -287 -54 -83 -189 -214 -267 -260 -82 -49 -86 -49 -91 -13
-4 30 0 35 70 82 102 69 209 177 271 273 64 100 66 118 4 34 -105 -145 -198
-230 -336 -311 -44 -26 -45 -28 -40 -66 3 -22 0 -49 -7 -61 -6 -13 -9 -25 -6
-28 3 -3 35 9 72 26 179 84 326 236 433 448 50 100 78 202 87 321 4 50 10 92
14 92 11 0 48 -81 59 -130 15 -63 13 -117 -4 -202 -53 -249 -253 -520 -476
-642 -82 -45 -102 -47 -93 -8 7 31 7 30 111 96 43 28 110 82 149 120 67 67
154 186 154 210 0 6 -8 -2 -19 -19 -71 -114 -221 -251 -352 -320 -65 -34 -67
-37 -71 -78 -3 -23 -8 -51 -13 -61 -8 -17 -5 -18 30 -12 59 11 164 68 247 134
162 129 322 383 359 571 6 34 15 58 20 55 32 -19 41 -214 15 -304 -49 -168
-200 -352 -379 -464 -91 -57 -214 -103 -230 -87 -16 16 -3 25 91 71 115 55
185 106 268 191 102 106 111 135 11 36 -46 -46 -108 -99 -138 -119 -70 -46
-185 -104 -225 -112 -29 -6 -32 -11 -37 -54 -3 -26 -3 -49 -1 -51 2 -2 30 2
61 9 269 59 556 346 615 614 l11 51 10 -35 c16 -58 2 -187 -26 -258 -84 -204
-324 -407 -554 -466 -77 -20 -85 -20 -81 1 2 11 34 28 98 50 134 47 231 105
324 196 45 44 61 64 38 45 -24 -18 -71 -54 -105 -80 -87 -67 -193 -118 -318
-152 -54 -15 -57 -18 -67 -58 -6 -23 -9 -45 -6 -47 2 -3 36 0 75 7 249 43 534
271 620 496 24 62 32 60 43 -12 8 -55 -15 -165 -49 -232 -66 -130 -246 -264
-443 -330 -95 -31 -216 -48 -226 -32 -10 16 15 28 104 46 106 22 193 57 272
108 103 67 119 94 19 34 -123 -74 -264 -126 -342 -126 -43 0 -79 -17 -79 -38
0 -10 -5 -23 -12 -30 -20 -20 1 -27 76 -25 186 3 415 110 567 263 36 36 76 87
88 113 30 63 45 51 38 -29 -18 -191 -200 -349 -483 -418 -79 -19 -263 -27
-264 -11 -1 6 45 15 102 22 57 7 129 19 161 28 65 18 209 88 227 110 6 8 -17
0 -52 -17 -140 -68 -256 -98 -375 -98 -66 0 -69 -1 -95 -34 -16 -19 -28 -37
-28 -40 0 -4 55 -6 123 -6 245 0 466 86 606 236 33 35 62 64 65 64 2 0 0 -17
-6 -37 -43 -156 -219 -300 -433 -353 -144 -37 -335 -39 -335 -4 0 11 19 14 93
14 137 0 268 29 357 78 31 17 17 14 -105 -23 -76 -24 -111 -29 -222 -31 l-133
-2 -25 -30 c-30 -36 -29 -36 84 -52 124 -17 290 9 416 64 86 39 189 111 240
169 l45 52 0 -31 c0 -51 -56 -148 -116 -203 -64 -58 -190 -124 -284 -147 -96
-24 -400 -12 -400 16 0 4 73 7 163 6 135 -1 173 2 230 19 37 11 67 24 67 29 0
4 -10 5 -22 1 -13 -4 -63 -14 -113 -22 -76 -14 -109 -14 -208 -4 -117 11 -119
11 -147 -11 -16 -13 -29 -26 -29 -29 -1 -3 29 -15 67 -25 95 -27 340 -27 427
0 113 35 208 89 288 165 44 42 48 27 12 -46 -55 -110 -206 -205 -374 -237 -98
-19 -156 -20 -254 -5 -114 17 -189 40 -177 54 8 9 21 9 62 -1 83 -22 224 -28
321 -14 48 7 87 16 87 22 0 6 -18 6 -47 1 -88 -15 -272 -8 -351 14 -42 11 -75
16 -79 11 -3 -6 -19 -18 -35 -28 -28 -17 -29 -19 -12 -28 40 -21 173 -52 260
-61 198 -21 397 33 527 141 55 46 63 32 22 -38 -43 -74 -173 -152 -316 -189
-91 -24 -268 -16 -409 20 -114 29 -128 36 -108 53 10 8 29 6 73 -9 102 -34
245 -54 307 -42 l53 10 -66 2 c-86 1 -213 26 -297 56 -56 20 -69 22 -82 11 -8
-8 -28 -20 -44 -28 -28 -15 -29 -16 -10 -26 49 -26 235 -73 335 -84 178 -20
334 14 474 103 26 16 49 28 52 25 9 -9 -27 -64 -63 -96 -98 -86 -311 -133
-504 -111 -92 10 -313 72 -325 91 -12 19 15 19 60 0 94 -40 198 -60 316 -60
62 0 110 3 106 6 -3 3 -63 10 -134 14 -129 9 -204 27 -296 70 l-46 22 -30 -23
c-17 -13 -31 -26 -31 -30 0 -11 142 -68 228 -91 171 -46 430 -33 571 29 30 13
57 21 60 17 3 -3 -17 -27 -45 -52 -103 -96 -305 -134 -514 -97 -139 24 -350
100 -350 125 0 14 0 14 72 -18 138 -62 259 -86 363 -73 l60 8 -71 2 c-109 2
-219 28 -327 78 -91 43 -98 45 -115 30 -10 -10 -24 -17 -30 -17 -56 0 89 -78
223 -120 177 -54 310 -68 445 -46 52 9 119 25 148 36 58 22 65 16 25 -23 -93
-88 -359 -121 -563 -69 -123 31 -340 129 -340 153 0 16 21 10 69 -19 109 -66
280 -122 373 -122 50 0 22 17 -39 23 -88 9 -209 53 -301 109 -79 47 -86 49
-115 37 -51 -20 -52 -26 -6 -55 105 -66 264 -132 389 -160 99 -23 262 -23 359
0 40 9 76 15 78 12 12 -11 -83 -58 -159 -77 -178 -47 -387 -24 -563 61 -79 38
-214 128 -215 143 0 17 36 5 80 -28 82 -60 226 -122 313 -135 43 -6 81 -10 83
-7 3 2 -14 7 -38 11 -107 17 -247 79 -338 148 -50 38 -61 42 -113 43 -34 0
-56 -4 -54 -10 6 -18 121 -105 202 -153 43 -25 124 -62 180 -81 87 -30 116
-35 225 -39 70 -2 151 1 184 7 33 6 62 9 64 6 3 -3 -16 -14 -41 -25 -181 -80
-585 -22 -790 114 -48 32 -57 43 -57 67 0 16 3 29 6 29 3 0 24 -15 47 -33 87
-70 267 -157 324 -157 27 0 8 11 -61 35 -84 29 -176 81 -251 142 l-60 49 0
100 c0 54 1 103 3 107 3 5 18 -4 35 -20 32 -30 29 -18 -11 36 -22 29 -25 43
-23 105 1 39 4 72 6 74 2 2 11 -1 21 -6 19 -11 64 4 64 20 0 5 -9 4 -21 -2
-11 -7 -32 -9 -45 -6 -21 6 -24 12 -24 52 0 42 2 46 21 41 l21 -6 -21 23 c-19
21 -21 34 -23 236 l-3 215 -86 3 -86 3 0 30 c0 19 3 25 9 17 6 -10 8 -10 8 -1
0 7 19 32 43 55 23 24 61 80 84 124 68 130 135 177 328 229 295 78 452 160
605 315 186 188 258 359 267 638 6 170 11 175 56 54z m-1868 -196 c-9 -14 -25
-28 -36 -31 -39 -13 -19 -27 29 -21 l47 7 -32 -31 c-18 -16 -33 -33 -33 -36 0
-3 17 -3 37 1 l38 7 -19 -21 c-11 -12 -29 -21 -42 -21 -33 0 -38 -15 -10 -33
36 -24 64 -96 82 -213 10 -60 27 -125 39 -150 l22 -44 -24 0 c-27 0 -97 42
-112 67 -9 16 -12 16 -21 3 -5 -8 -10 -25 -10 -37 0 -31 -23 -29 -63 7 l-34
29 -22 -29 c-28 -38 -46 -38 -66 0 -9 17 -18 30 -21 30 -3 0 -21 -16 -41 -35
-39 -38 -56 -40 -61 -9 -7 45 -12 47 -37 20 -23 -25 -63 -46 -88 -46 -6 0 -1
7 11 16 39 27 24 96 -25 115 -18 7 -48 4 -110 -11 -102 -24 -112 -24 -162 -4
-57 23 -62 44 -8 32 53 -12 130 -3 182 22 45 22 115 77 115 91 0 5 -26 9 -58
9 -32 0 -82 7 -112 15 -103 29 -124 29 -182 3 -30 -14 -71 -40 -91 -58 l-37
-32 0 28 c0 42 38 111 76 141 19 14 62 36 96 48 34 12 56 25 49 29 -19 12 -12
34 14 40 14 4 23 11 19 17 -5 9 22 38 38 39 3 0 9 -13 13 -30 4 -16 11 -33 17
-36 11 -7 10 -2 -9 84 -7 27 13 30 20 2 3 -11 17 -25 31 -31 24 -11 29 -9 59
23 43 48 88 54 271 38 154 -13 203 -7 248 29 29 25 37 4 13 -33z m-660 -325
l59 -19 -34 -21 c-42 -25 -114 -28 -167 -6 -19 8 -37 15 -39 15 -2 0 -4 -7 -4
-15 0 -17 -9 -19 -30 -5 -18 11 -10 20 45 49 49 26 92 26 170 2z m285 -284 c0
-44 -31 -77 -73 -77 -55 0 -61 12 -23 49 19 19 41 31 49 28 7 -3 19 4 25 14
17 27 22 24 22 -14z m105 1 c-9 -40 -23 -68 -34 -68 -26 0 -41 60 -16 62 6 0
16 9 23 19 21 30 34 23 27 -13z m162 13 c3 -13 11 -17 24 -14 22 6 26 -16 9
-48 -20 -36 -40 -17 -55 49 -7 35 13 48 22 13z m121 3 c5 3 28 -13 51 -36 44
-46 41 -58 -16 -58 -42 0 -77 33 -69 63 3 12 6 29 6 37 0 12 2 13 9 1 5 -7 13
-11 19 -7z m-203 -14 c9 7 18 10 22 6 8 -8 -23 -76 -35 -76 -11 0 -32 45 -32
67 0 13 3 13 15 3 12 -10 18 -10 30 0z m-29 -104 c3 -8 -2 -31 -11 -52 l-16
-39 -20 24 c-35 43 -18 112 23 90 11 -6 21 -16 24 -23z m89 19 c19 0 17 -61
-3 -85 l-19 -24 -17 32 c-9 17 -16 39 -16 50 0 23 20 43 34 34 6 -4 16 -7 21
-7z m-197 -27 c4 -32 -13 -68 -32 -68 -27 0 -48 83 -23 94 28 12 52 1 55 -26z
m283 10 c1 -17 2 -19 6 -5 2 9 9 17 14 17 19 0 20 -29 3 -66 l-18 -37 -18 23
c-18 22 -24 70 -11 83 13 13 23 7 24 -15z m-399 -10 c17 4 19 2 13 -19 -13
-44 -38 -61 -85 -57 l-44 3 44 43 c25 24 46 39 48 34 2 -6 12 -7 24 -4z m498
-10 c0 -9 3 -8 10 2 8 12 15 9 45 -20 19 -18 35 -38 35 -42 0 -10 -71 -10 -86
0 -13 8 -34 46 -34 61 0 6 7 11 15 11 8 0 15 -6 15 -12z m-469 -95 l1 -28 7
29 c5 26 7 27 19 13 16 -19 8 -69 -13 -87 -17 -14 -45 23 -45 61 0 45 29 56
31 12z m108 -6 c1 29 18 38 29 16 12 -22 -15 -96 -32 -90 -6 2 -17 20 -25 40
-12 31 -12 39 0 53 13 16 15 14 20 -12 5 -22 7 -24 8 -7z m101 11 l9 -23 0 24
c1 20 3 21 16 11 20 -17 19 -50 -4 -79 l-18 -24 -17 24 c-17 25 -20 47 -10 73
8 21 13 20 24 -6z m136 7 c10 -24 -5 -82 -22 -89 -17 -7 -49 57 -40 80 8 21
24 17 29 -8 4 -20 4 -19 6 5 1 29 18 37 27 12z m114 -29 c0 -11 -9 -32 -19
-45 l-18 -24 -17 24 c-27 39 -18 92 11 67 8 -6 13 -7 12 -2 -4 21 2 26 16 14
8 -7 15 -22 15 -34z m-528 -12 c-2 -10 -15 -30 -29 -42 -20 -18 -33 -22 -56
-18 -17 3 -32 8 -35 10 -2 3 10 20 28 39 24 27 38 34 63 33 26 -2 31 -6 29
-22z m649 -10 c35 -36 32 -54 -10 -54 -36 0 -68 26 -76 62 -6 25 -4 27 24 26
20 -1 40 -12 62 -34z m-607 -60 c18 -17 13 -59 -10 -84 -17 -18 -31 -6 -43 38
-7 24 -6 36 5 47 19 19 29 19 48 -1z m116 -32 c-1 -28 -20 -62 -37 -62 -12 0
-33 44 -33 70 0 10 8 23 17 29 26 14 53 -5 53 -37z m102 24 c18 -27 -22 -100
-42 -80 -21 21 -29 73 -14 89 15 14 43 10 56 -9z m89 14 c22 -12 24 -37 7 -75
-14 -32 -32 -32 -46 0 -15 33 -15 58 0 73 15 15 15 15 39 2z m98 -22 c1 27 17
29 26 2 8 -25 -15 -75 -35 -75 -8 0 -20 16 -26 35 -10 29 -9 38 5 54 15 18 16
17 22 -10 5 -24 7 -25 8 -6z m100 5 c1 23 25 17 29 -7 5 -24 -18 -76 -33 -76
-13 0 -35 42 -35 68 0 10 6 24 13 31 10 10 13 7 19 -11 4 -18 6 -19 7 -5z
m-612 -12 c22 19 16 -34 -7 -59 -21 -22 -83 -31 -94 -14 -2 4 11 25 31 46 25
26 39 34 46 27 7 -7 15 -7 24 0z m771 -34 c36 -37 33 -47 -14 -47 -36 0 -69
24 -79 58 -6 20 -3 22 27 22 25 0 42 -9 66 -33z m-745 -69 l4 -23 9 23 c9 21
11 22 23 8 12 -14 11 -23 -4 -56 -10 -22 -22 -40 -26 -40 -12 0 -39 55 -39 78
0 36 26 44 33 10z m108 -5 l2 -28 4 28 c5 34 21 35 29 3 6 -26 -13 -77 -32
-83 -21 -7 -46 82 -27 100 13 14 23 6 24 -20z m108 0 c1 31 16 36 29 10 11
-21 -8 -85 -26 -91 -11 -3 -42 47 -42 71 0 7 6 19 13 26 10 10 13 7 18 -16 l7
-28 1 28z m101 5 l9 -23 0 23 c1 29 19 28 27 -2 6 -26 -13 -77 -32 -83 -21 -7
-46 82 -27 100 10 11 13 9 23 -15z m109 -5 c1 40 25 29 29 -14 2 -19 -4 -42
-13 -54 l-15 -20 -15 20 c-24 30 -29 63 -14 82 13 14 15 13 20 -13 l7 -29 1
28z m107 10 c-7 23 13 18 28 -6 7 -11 6 -26 -7 -51 -20 -43 -30 -45 -45 -11
-23 51 -10 102 17 68 13 -17 13 -17 7 0z m103 -5 c2 37 26 20 28 -19 3 -36
-19 -75 -36 -65 -5 4 -15 22 -21 42 -9 27 -9 38 1 51 12 14 14 13 20 -8 l7
-24 1 23z m-729 -20 c0 7 7 12 15 12 21 0 19 -23 -6 -54 -15 -19 -30 -26 -54
-26 -48 0 -51 14 -13 55 30 33 33 35 45 19 7 -10 13 -12 13 -6z m914 -60 c-10
-16 -74 -8 -94 12 -24 24 -28 65 -5 57 8 -4 17 -1 21 4 4 7 22 -5 45 -27 21
-20 36 -41 33 -46z m-1101 27 c-3 -9 -8 -14 -10 -11 -3 3 -2 9 2 15 9 16 15
13 8 -4z m255 -48 c25 -16 7 -97 -22 -97 -24 0 -48 84 -30 103 8 8 34 4 52 -6z
m115 -46 c-14 -60 -38 -66 -60 -14 -14 36 -14 38 7 55 21 17 24 17 41 2 13
-12 17 -24 12 -43z m107 13 c0 -32 -17 -64 -34 -64 -15 0 -36 41 -36 70 0 10
8 23 17 29 25 14 53 -5 53 -35z m102 22 c18 -27 -22 -100 -42 -80 -22 22 -29
71 -13 87 16 16 42 12 55 -7z m106 -13 c4 -28 -15 -73 -31 -73 -28 0 -48 75
-26 97 16 16 53 0 57 -24z m81 10 c1 10 7 17 14 14 17 -6 12 -66 -7 -85 -19
-19 -33 -9 -45 35 -7 24 -5 35 8 47 15 16 16 15 23 -6 4 -18 6 -19 7 -5z m100
0 c1 24 25 16 29 -9 4 -29 -15 -74 -31 -74 -15 0 -37 41 -37 68 0 10 6 24 13
31 10 10 13 7 19 -11 4 -18 6 -19 7 -5z m136 -31 c-8 -36 -31 -60 -46 -45 -17
17 -28 70 -16 82 17 17 25 13 30 -11 3 -18 5 -17 6 7 1 27 2 28 17 13 11 -11
14 -25 9 -46z m-945 17 c-12 -21 -31 -22 -37 -2 -2 6 6 13 19 16 13 2 24 5 26
6 1 0 -2 -8 -8 -20z m1117 6 c12 -4 14 -8 5 -17 -9 -9 -17 -7 -35 10 -23 24
-23 24 30 7z m-1053 -12 c-5 -17 -5 -17 6 0 6 9 18 17 26 17 22 0 9 -39 -23
-68 -20 -18 -32 -22 -57 -16 -17 3 -32 7 -34 9 -1 1 12 19 30 39 34 38 61 48
52 19z m946 5 c0 -9 4 -8 10 2 8 12 16 9 47 -22 20 -21 34 -40 31 -44 -4 -3
-23 -6 -44 -7 -27 -1 -41 5 -55 22 -23 28 -25 61 -4 61 8 0 15 -6 15 -12z
m127 -50 c-3 -8 -6 -5 -6 6 -1 11 2 17 5 13 3 -3 4 -12 1 -19z m-1003 -23 c4
-10 -1 -15 -14 -15 -20 0 -26 11 -13 23 10 11 20 8 27 -8z m106 -6 c0 -5 -4
-9 -10 -9 -5 0 -10 7 -10 16 0 8 5 12 10 9 6 -3 10 -10 10 -16z m99 -8 c-15
-5 -22 6 -14 19 6 9 10 9 16 -1 5 -8 4 -15 -2 -18z m111 8 c0 -5 -4 -9 -10 -9
-5 0 -10 7 -10 16 0 8 5 12 10 9 6 -3 10 -10 10 -16z m99 -8 c-15 -5 -22 6
-14 19 6 9 10 9 16 -1 5 -8 4 -15 -2 -18z m111 8 c0 -5 -4 -9 -10 -9 -5 0 -10
7 -10 16 0 8 5 12 10 9 6 -3 10 -10 10 -16z m99 -8 c-15 -5 -22 6 -14 19 6 9
10 9 16 -1 5 -8 4 -15 -2 -18z m111 8 c0 -5 -4 -9 -10 -9 -5 0 -10 7 -10 16 0
8 5 12 10 9 6 -3 10 -10 10 -16z m110 0 c0 -5 -7 -9 -15 -9 -15 0 -20 12 -9
23 8 8 24 -1 24 -14z m368 -37 c10 -7 12 -100 10 -433 l-3 -424 -245 0 -245 0
-3 93 -3 92 166 0 c103 0 165 4 165 10 0 6 -15 10 -34 10 -42 0 -100 38 -104
69 -5 35 7 93 19 86 5 -4 9 3 9 14 0 35 20 24 22 -11 l1 -33 4 33 c5 36 22 44
24 10 1 -18 4 -15 16 15 17 39 33 49 34 20 0 -14 3 -13 11 5 16 32 32 22 38
-24 7 -54 18 -24 26 74 6 71 4 82 -19 128 -67 132 -203 183 -366 138 -78 -22
-167 -103 -176 -161 -3 -21 -10 -52 -15 -69 -14 -42 -12 -84 5 -114 14 -26 20
-21 27 25 2 11 11 21 21 23 13 3 17 -4 17 -30 0 -18 5 -40 10 -48 7 -11 10 -6
10 21 0 33 14 59 32 59 4 0 8 -17 8 -37 l0 -38 23 35 22 35 3 -37 c4 -44 17
-49 34 -13 20 45 31 28 24 -37 -11 -96 -56 -163 -56 -83 l0 34 -152 3 -153 3
-3 269 c-1 180 1 273 8 281 9 11 94 13 393 14 210 0 388 -3 395 -7z m-1471
-243 c-3 -34 -1 -72 5 -84 10 -22 66 -55 93 -55 7 0 29 -10 47 -22 37 -25 38
-30 37 -163 0 -38 -4 -74 -9 -79 -15 -15 -30 5 -30 42 0 20 -9 55 -19 77 -11
22 -22 48 -25 58 -4 13 -12 16 -32 11 -21 -6 -25 -3 -22 12 2 12 -12 33 -37
56 -35 32 -40 42 -39 80 0 45 21 128 31 128 3 0 3 -28 0 -61z m453 -65 c0 -44
-52 -106 -72 -86 -10 10 -7 17 14 37 28 26 44 76 32 97 -6 9 -3 9 9 -1 10 -8
17 -28 17 -47z m680 -190 c0 -14 -21 -19 -33 -7 -9 9 13 34 24 27 5 -3 9 -12
9 -20z m-857 -61 c-6 -84 -14 -103 -44 -103 -18 0 -18 2 -6 28 15 28 32 100
28 116 -3 14 7 36 18 36 6 0 7 -31 4 -77z m857 -14 c0 -19 -5 -29 -15 -29 -15
0 -22 50 -9 63 12 12 24 -4 24 -34z m-49 -22 c-13 -13 -26 -3 -16 12 3 6 11 8
17 5 6 -4 6 -10 -1 -17z m-384 -149 l29 -93 102 -5 103 -5 -81 -59 c-61 -43
-80 -62 -75 -75 12 -30 55 -166 55 -174 0 -4 -24 10 -52 31 -29 21 -67 48 -84
60 l-31 21 -79 -59 c-44 -33 -82 -60 -85 -60 -3 0 7 37 22 83 16 45 28 90 29
99 0 10 -32 41 -77 75 l-78 58 100 5 100 5 30 93 c16 50 33 92 36 92 4 0 20
-42 36 -92z m-357 -210 c0 -200 107 -362 273 -417 l37 -13 0 -274 0 -275 -22
6 c-56 17 -216 92 -287 135 -212 127 -349 289 -426 500 -38 107 -65 242 -65
333 l0 77 245 0 245 0 0 -72z m900 -78 c8 -5 11 -12 7 -17 -5 -4 -12 -1 -18 7
-8 13 -10 13 -18 0 -6 -8 -13 -11 -18 -7 -6 7 13 27 27 27 3 0 12 -4 20 -10z
m-105 -45 c-11 -8 -26 -19 -33 -26 -7 -6 -16 -8 -20 -4 -4 4 -1 10 6 12 7 3
18 11 25 19 7 7 19 13 27 13 11 0 10 -3 -5 -14z m65 7 c0 -11 -41 -34 -48 -28
-3 4 3 13 14 21 21 16 34 19 34 7z m69 -4 c11 -7 16 -19 13 -30 -2 -10 1 -25
8 -33 7 -8 8 -15 2 -15 -17 0 -33 27 -26 44 5 12 0 19 -15 23 -11 3 -21 9 -21
14 0 12 17 11 39 -3z m-1449 -33 c-41 -44 -240 -135 -294 -135 -12 0 -16 -3
-11 -9 21 -20 207 47 297 105 36 24 50 8 18 -18 -42 -35 -200 -104 -290 -128
-107 -27 -286 -38 -361 -20 -52 12 -129 48 -129 59 0 3 75 6 168 7 135 1 185
5 262 23 114 27 222 69 292 114 58 38 82 38 48 2z m1790 -34 c139 -72 350
-114 543 -109 64 2 117 0 117 -4 0 -13 -67 -46 -119 -58 -73 -17 -263 -7 -362
18 -134 36 -309 120 -309 149 0 18 -1 18 82 -26 63 -34 213 -91 239 -91 5 0 9
5 9 10 0 6 -8 10 -19 10 -47 0 -242 92 -284 135 -29 28 -19 38 16 16 17 -12
57 -35 87 -50z m-270 49 c0 -5 -4 -10 -9 -10 -6 0 -13 5 -16 10 -3 6 1 10 9
10 9 0 16 -4 16 -10z m-100 -10 c0 -5 -9 -10 -20 -10 -11 0 -20 5 -20 10 0 6
9 10 20 10 11 0 20 -4 20 -10z m-126 -31 c-10 -12 -18 -29 -16 -39 3 -21 -14
-35 -43 -35 -15 0 -20 -7 -20 -26 -1 -35 -31 -65 -49 -50 -11 9 -15 9 -18 0
-2 -6 -15 -12 -28 -13 -21 -1 -25 -6 -25 -34 0 -31 -26 -63 -33 -42 -6 16 -22
11 -22 -7 0 -9 -3 -14 -6 -10 -3 3 -3 15 1 27 5 16 10 18 20 10 9 -7 16 -6 26
6 10 12 10 17 0 23 -19 12 8 53 31 47 21 -5 46 20 26 27 -20 7 22 49 44 44 9
-3 23 1 29 9 9 11 15 11 25 3 11 -9 15 -8 20 4 3 9 3 21 -1 27 -7 11 11 33 35
43 24 9 24 8 4 -14z m48 1 c-12 -11 -26 -20 -33 -20 -13 0 31 39 45 40 6 0 0
-9 -12 -20z m174 1 c-9 -10 -14 -25 -11 -34 4 -8 2 -18 -4 -22 -7 -4 -11 7
-11 29 0 24 5 36 18 39 9 3 19 5 21 6 2 0 -3 -7 -13 -18z m-292 -22 c-3 -5
-10 -7 -15 -3 -5 3 -7 10 -3 15 3 5 10 7 15 3 5 -3 7 -10 3 -15z m303 -76 c-3
-10 -5 -2 -5 17 0 19 2 27 5 18 2 -10 2 -26 0 -35z m-1489 25 c-6 -16 -76 -57
-162 -93 -38 -16 -64 -31 -59 -32 12 -4 139 43 181 68 44 25 64 24 32 -2 -41
-34 -153 -87 -232 -109 -94 -26 -241 -27 -319 -3 -53 17 -54 17 -19 20 144 12
245 29 321 53 86 28 204 81 224 101 13 13 37 11 33 -3z m1688 -24 c122 -68
267 -108 450 -123 l89 -7 -54 -17 c-77 -24 -235 -23 -323 2 -67 19 -195 78
-232 106 -40 30 -6 24 77 -15 47 -22 100 -43 119 -45 l33 -6 -35 17 c-19 10
-72 35 -117 56 -49 23 -83 45 -83 53 0 21 3 20 76 -21z m-233 -37 c-4 -19 -10
-26 -19 -23 -9 3 -14 -2 -14 -14 0 -11 2 -20 4 -20 2 0 11 -3 20 -6 12 -5 16
0 16 20 0 14 5 26 10 26 14 0 12 -38 -2 -54 -7 -7 -20 -11 -30 -8 -12 3 -18
-1 -18 -12 0 -9 -4 -16 -10 -16 -13 0 -13 17 0 25 7 4 7 12 0 25 -15 27 -12
50 5 50 8 0 20 9 27 20 16 24 18 22 11 -13z m-1426 -33 c3 -8 -4 -29 -17 -46
-27 -37 -22 -45 13 -18 l26 20 7 -22 c5 -16 0 -27 -20 -44 -24 -21 -110 -43
-122 -31 -4 3 6 21 20 40 14 19 26 38 26 43 0 16 39 74 50 74 6 0 13 -7 17
-16z m1584 3 c9 -7 19 -23 24 -37 4 -14 20 -42 36 -62 16 -20 29 -39 29 -42 0
-11 -61 -6 -93 8 -59 25 -71 40 -57 65 l12 23 24 -23 c29 -27 31 -15 5 25 -11
16 -17 35 -14 42 6 17 13 17 34 1z m-507 -48 c-9 -10 -22 -19 -27 -19 -6 0 0
8 11 19 12 10 22 25 23 32 0 11 2 11 6 1 3 -7 -3 -22 -13 -33z m269 -34 c-16
-22 -33 -32 -33 -20 0 9 34 45 43 45 4 0 0 -11 -10 -25z m4 -46 c-11 -15 -13
-28 -7 -45 7 -18 6 -24 -4 -24 -8 0 -16 -6 -19 -12 -2 -7 -8 -9 -13 -5 -5 5
-1 13 9 18 21 12 22 26 3 45 -17 17 -31 2 -22 -23 7 -16 -19 -53 -37 -53 -6 0
-3 8 6 18 9 10 13 27 10 43 -5 27 18 46 39 33 5 -3 16 4 25 16 8 12 17 19 20
16 3 -2 -2 -15 -10 -27z m43 12 c-10 -20 -30 -37 -30 -27 0 6 33 46 38 46 1 0
-2 -9 -8 -19z m-400 -1 c0 -13 27 -13 33 0 3 6 4 5 3 -2 -1 -7 -15 -14 -29
-16 -31 -4 -31 -5 -15 -31 12 -20 5 -51 -12 -51 -6 0 -8 10 -4 24 3 13 1 27
-4 30 -7 4 -6 15 1 31 12 25 27 34 27 15z m-930 -20 c9 -17 7 -24 -12 -40 -25
-21 -18 -26 12 -10 15 8 22 5 34 -12 22 -31 6 -45 -60 -54 -30 -3 -57 -5 -59
-2 -12 12 19 95 43 115 33 28 29 27 42 3z m1471 -3 c17 -13 39 -69 39 -98 0
-22 -33 -25 -92 -8 -41 11 -46 23 -23 53 12 16 18 17 27 8 7 -7 18 -12 26 -12
9 0 6 7 -9 18 -38 32 -8 70 32 39z m-594 -62 c1 -36 -2 -63 -6 -61 -5 3 -6 17
-3 31 2 15 0 25 -7 25 -15 0 -14 37 2 55 6 8 12 14 12 15 0 0 1 -29 2 -65z
m-994 29 c3 -4 -3 -18 -13 -32 -11 -14 -17 -28 -14 -31 4 -3 9 0 11 7 6 17 23
15 23 -3 0 -31 -38 -55 -86 -55 l-45 0 53 60 c54 60 60 65 71 54z m1729 -54
l58 -60 -49 0 c-54 0 -81 17 -81 52 0 20 1 21 20 3 11 -10 20 -15 20 -11 0 4
-9 19 -20 33 -20 26 -26 43 -13 43 3 0 32 -27 65 -60z m-450 0 c-30 -29 -40
-25 -12 5 13 14 26 23 28 20 3 -3 -4 -14 -16 -25z m18 -28 c0 -11 -41 -45 -47
-39 -6 6 28 47 39 47 5 0 8 -3 8 -8z m30 -12 c-6 -11 -15 -20 -20 -20 -6 0 -2
9 7 20 10 11 19 20 21 20 1 0 -2 -9 -8 -20z m-363 -12 c-3 -8 -6 -5 -6 6 -1
11 2 17 5 13 3 -3 4 -12 1 -19z m-752 -48 c-20 -22 -14 -26 14 -8 15 9 23 9
35 -1 35 -29 9 -51 -61 -51 -31 0 -33 2 -33 34 0 19 5 47 10 62 l11 28 21 -22
c21 -21 21 -22 3 -42z m835 46 c0 -8 -4 -18 -10 -21 -19 -12 -10 -25 14 -19
16 4 25 1 29 -10 4 -10 18 -16 37 -16 18 0 29 -4 25 -10 -10 -15 -55 -12 -61
5 -8 19 -28 19 -44 0 -10 -12 -9 -18 6 -32 12 -13 19 -14 22 -5 4 14 22 17 22
3 0 -15 -30 -21 -51 -11 -13 7 -19 20 -17 38 3 37 -8 51 -32 45 -12 -3 -20 0
-20 7 0 7 7 10 15 6 8 -3 15 0 15 6 0 7 5 6 15 -2 13 -10 15 -9 15 9 0 11 5
21 10 21 6 0 10 -6 10 -14z m439 -30 c19 -78 19 -80 -45 -73 -31 3 -59 8 -62
12 -3 3 4 15 16 27 17 17 24 20 34 10 19 -19 33 -14 15 6 -15 16 -15 20 -1 40
22 32 30 27 43 -22z m-1389 14 c-28 -24 -14 -27 18 -4 29 20 36 14 27 -26 -8
-37 -40 -52 -100 -48 l-41 3 9 42 c7 37 11 42 40 46 73 9 72 9 47 -13z m1120
10 c-12 -8 -13 -12 -1 -19 10 -7 8 -12 -9 -24 -14 -10 -20 -22 -17 -31 4 -9 3
-16 -2 -16 -19 0 -19 40 1 54 14 10 16 16 8 21 -9 6 -9 10 1 16 8 5 19 9 24 9
6 0 3 -5 -5 -10z m335 -20 c3 -6 11 -10 17 -10 6 0 3 10 -8 21 l-19 21 45 -7
c55 -9 57 -10 66 -59 l7 -39 -57 5 c-64 5 -81 18 -91 66 -7 32 -6 33 13 23 12
-6 24 -16 27 -21z m-382 -7 c-7 -2 -19 -2 -25 0 -7 3 -2 5 12 5 14 0 19 -2 13
-5z m102 -13 c-10 -11 -28 -20 -39 -19 -21 0 -21 0 0 9 12 5 25 13 29 19 3 6
11 11 17 11 6 0 3 -9 -7 -20z m-1330 -10 c-24 -26 -11 -39 15 -15 19 18 20 17
20 -3 0 -31 -24 -49 -73 -56 -74 -11 -81 -1 -34 49 26 26 52 43 66 44 23 1 24
0 6 -19z m1847 -24 c42 -42 43 -45 22 -50 -24 -6 -79 2 -106 16 -10 5 -18 20
-18 35 0 25 0 26 20 8 11 -10 20 -13 20 -7 0 6 -4 14 -10 17 -16 10 -11 25 9
25 10 0 38 -20 63 -44z m-627 -26 c3 -5 -3 -10 -15 -10 -12 0 -18 5 -15 10 3
6 10 10 15 10 5 0 12 -4 15 -10z m-1072 -36 l-28 -25 32 15 c46 23 54 20 47
-11 -10 -42 -25 -53 -82 -60 l-52 -6 0 29 c0 58 10 73 49 77 20 2 42 4 49 5 7
1 0 -9 -15 -24z m242 16 c3 -5 -2 -24 -11 -42 l-17 -33 25 23 c24 22 48 29 48
14 0 -5 -20 -30 -45 -56 -51 -52 -62 -47 -51 26 10 64 34 96 51 68z m1040 -45
c9 -30 13 -64 10 -76 -6 -19 -11 -17 -56 28 -27 26 -49 51 -49 56 0 16 40 6
50 -13 6 -11 15 -20 21 -20 6 0 1 15 -10 33 -11 19 -18 37 -14 40 18 18 34 2
48 -48z m268 35 c5 -4 11 -27 14 -50 l6 -43 -59 7 c-59 7 -70 14 -80 54 -9 33
2 39 35 19 42 -25 50 -21 16 8 l-29 26 44 -7 c25 -4 49 -10 53 -14z m-1418
-20 c-10 -11 -16 -22 -13 -25 3 -3 11 1 18 10 17 20 30 19 30 -2 -1 -10 -23
-43 -50 -73 l-50 -55 0 55 c0 66 16 102 50 110 33 9 37 4 15 -20z m1270 -17
c16 -37 21 -127 7 -121 -4 2 -26 23 -49 48 -59 65 -72 121 -16 68 26 -24 31
-13 8 18 -20 27 -19 32 10 26 18 -3 30 -16 40 -39z m-1555 2 c-8 -9 -9 -15 -2
-15 6 0 14 5 17 10 11 17 25 11 25 -10 0 -29 -88 -60 -126 -46 -15 6 -12 12
17 41 19 19 44 35 58 35 20 0 21 -2 11 -15z m1854 -20 l38 -34 -25 -6 c-35 -9
-105 12 -118 36 -12 24 -4 38 13 21 17 -17 28 -15 22 3 -11 27 29 16 70 -20z
m-2750 -135 c99 -95 216 -224 216 -238 0 -4 -25 -25 -55 -46 -87 -63 -87 -63
-69 -129 18 -60 14 -94 -10 -80 -7 4 -49 53 -93 108 -94 119 -245 270 -320
322 -29 20 -53 41 -53 46 0 22 201 -17 238 -46 27 -21 25 8 -6 96 -18 51 -36
101 -39 111 -10 31 76 -34 191 -144z m3776 150 c0 -6 -6 -21 -14 -33 -19 -29
-56 -140 -56 -167 0 -18 3 -19 21 -10 48 26 239 64 239 48 0 -2 -36 -32 -79
-67 -95 -74 -208 -191 -314 -324 -43 -53 -83 -97 -88 -97 -18 0 -19 25 -4 75
8 28 15 57 15 65 0 8 -30 38 -65 65 -36 28 -65 55 -65 61 0 29 217 250 349
356 48 39 61 45 61 28z m-2420 -67 c0 -34 -53 -182 -212 -596 -19 -48 -39 -92
-45 -98 -11 -11 -66 9 -178 66 l-60 30 -5 68 c-4 57 -9 72 -29 88 -13 10 -34
19 -47 19 -31 0 -30 10 5 62 27 39 68 81 158 162 l31 28 15 -28 c13 -26 15
-26 21 -8 12 38 66 114 80 114 8 0 18 -10 21 -21 6 -19 10 -16 32 27 25 50 51
84 63 84 4 0 10 -18 14 -39 8 -49 23 -60 36 -27 10 28 78 106 91 106 5 0 9
-17 9 -37z m67 22 c18 -13 20 -20 12 -52 -10 -45 -10 -79 0 -43 l7 25 22 -35
c12 -19 22 -42 22 -50 0 -16 -68 -75 -77 -67 -19 20 -40 188 -27 221 8 20 14
20 41 1z m773 -50 c0 -56 -16 -163 -26 -174 -2 -2 -19 8 -39 23 -39 30 -43 51
-18 99 15 29 17 30 25 12 5 -13 6 -5 3 24 -4 33 -1 48 11 62 32 36 44 24 44
-46z m83 23 c19 -24 38 -53 41 -65 11 -35 25 -27 37 22 6 25 14 45 18 45 11 0
48 -54 66 -96 16 -37 17 -38 26 -16 4 12 13 22 18 22 16 0 70 -72 76 -102 8
-35 23 -36 31 -3 4 14 10 25 14 23 30 -11 220 -215 220 -237 0 -6 -13 -11 -30
-11 -55 0 -91 -67 -76 -141 6 -30 5 -31 -108 -85 -63 -30 -119 -54 -124 -54
-11 0 -24 30 -105 240 -128 330 -151 396 -157 448 -8 65 6 68 53 10z m-1335
-4 l31 -6 -6 -62 -6 -61 -99 -97 c-62 -61 -109 -98 -122 -98 -19 -1 -19 -2 -3
-11 28 -16 20 -31 -13 -24 l-30 7 22 -39 c27 -46 35 -53 69 -53 26 0 39 -16
39 -46 0 -9 -11 -14 -27 -14 l-28 -1 28 -17 c23 -14 38 -42 22 -42 -3 0 -35
19 -71 41 -57 36 -68 40 -90 31 -34 -16 -110 -88 -135 -128 -12 -19 -29 -34
-39 -34 -11 0 -25 -10 -31 -22 -10 -19 -8 -25 21 -50 27 -22 30 -28 17 -33
-29 -12 -72 17 -75 50 -2 17 -8 34 -13 40 -19 19 -7 35 62 81 75 51 118 99
102 115 -6 6 -19 -3 -37 -25 -15 -20 -52 -50 -84 -69 -65 -38 -92 -78 -73
-110 8 -13 9 -23 3 -29 -14 -14 -39 26 -47 75 -9 44 6 67 42 67 28 0 143 93
143 116 0 23 -12 16 -73 -41 -46 -44 -64 -55 -91 -55 -28 0 -36 -5 -46 -29 -7
-18 -9 -43 -5 -62 11 -48 -10 -27 -25 25 -7 25 -10 56 -6 70 5 22 14 26 59 32
48 6 57 12 107 67 56 61 99 87 145 87 17 0 25 5 25 18 0 10 19 36 43 58 31 29
56 70 94 154 l52 115 53 6 c29 3 56 6 59 7 4 1 20 -1 37 -4z m112 -3 c0 -6 -4
-13 -10 -16 -5 -3 -10 -11 -10 -17 0 -6 8 -4 18 5 23 21 32 21 32 1 0 -16 -64
-95 -83 -103 -16 -6 -2 119 14 130 18 11 39 11 39 0z m1516 -26 c15 -36 19
-109 6 -103 -4 2 -27 24 -50 49 -29 31 -40 52 -36 63 6 16 8 15 27 -1 19 -18
19 -17 13 5 -12 38 23 27 40 -13z m210 11 c6 -6 31 -56 55 -111 30 -69 57
-112 85 -141 23 -22 43 -49 45 -59 3 -14 17 -22 49 -28 37 -7 58 -21 115 -78
52 -50 78 -69 97 -69 45 0 77 -18 84 -45 4 -15 2 -31 -5 -38 -6 -6 -11 -20
-11 -31 0 -25 -16 -53 -25 -44 -4 3 -1 15 6 27 11 17 10 26 -4 55 -14 30 -22
36 -48 36 -23 0 -44 13 -89 56 -80 77 -101 61 -24 -17 47 -48 64 -59 91 -59
41 0 61 -30 44 -67 -6 -13 -11 -33 -11 -43 0 -22 -35 -46 -45 -31 -3 5 -1 12
5 16 17 10 11 64 -9 83 -10 9 -44 32 -75 51 -31 18 -56 36 -56 40 -1 17 -42
53 -50 45 -15 -15 44 -79 111 -120 l60 -37 -7 -46 c-8 -59 -20 -81 -44 -82
-11 -1 -25 -2 -32 -3 -24 -2 -17 20 12 36 27 16 29 19 18 43 -6 14 -19 25 -28
25 -10 0 -37 25 -61 56 -40 52 -115 114 -138 114 -6 0 -38 -18 -72 -40 -34
-22 -66 -40 -71 -40 -19 0 -6 22 25 40 l32 20 -32 0 c-55 0 -34 56 22 62 23 2
35 12 53 46 l24 43 -26 -7 c-20 -5 -26 -2 -26 10 0 9 6 16 13 17 6 1 2 4 -9 7
-12 4 -65 48 -118 99 -94 88 -97 94 -101 140 -2 26 -6 56 -10 65 -5 13 0 17
22 20 47 6 147 -4 159 -16z m-1266 -7 c45 -24 47 -27 23 -45 -28 -21 -38 -17
-56 21 -26 54 -25 54 33 24z m590 11 c0 -17 -30 -70 -39 -70 -5 0 -19 8 -31
18 l-23 19 39 21 c45 24 54 26 54 12z m-516 -92 c-4 -31 -4 -32 7 -8 l11 25
18 -35 c32 -59 24 -81 -47 -123 -17 -10 -53 63 -53 105 0 26 6 37 28 50 38 24
42 22 36 -14z m437 11 c16 -11 29 -29 29 -40 0 -23 -39 -119 -49 -119 -3 0
-24 15 -45 33 l-39 34 19 46 c21 52 30 58 37 25 3 -17 5 -14 6 10 1 38 4 38
42 11z m-312 -41 c-29 -24 -44 -22 -57 7 -19 41 -15 44 33 26 46 -16 46 -16
24 -33z m208 12 c-12 -32 -31 -37 -59 -16 -25 18 -23 23 12 31 16 4 32 11 36
16 13 21 21 -3 11 -31z m-553 -32 c5 -36 -2 -68 -44 -188 -47 -138 -62 -197
-40 -159 8 13 55 127 91 219 8 20 12 22 19 10 19 -29 9 -98 -29 -226 -45 -147
-77 -243 -83 -249 -5 -5 -140 34 -150 44 -4 3 24 87 63 186 39 99 89 231 112
292 23 62 45 113 48 113 4 0 10 -19 13 -42z m945 -189 c38 -101 84 -221 102
-267 21 -53 29 -86 22 -93 -5 -5 -40 -18 -77 -28 l-67 -19 -11 27 c-19 47 -67
199 -94 293 -24 86 -26 140 -7 171 3 5 23 -36 44 -90 22 -54 44 -107 49 -118
5 -11 14 -33 20 -49 6 -16 13 -27 16 -24 2 3 -22 83 -54 179 -52 155 -57 178
-49 213 l10 39 13 -24 c7 -14 44 -108 83 -210z m-528 127 c5 -6 9 2 9 21 0 60
7 65 51 36 21 -14 39 -29 39 -34 0 -4 -22 -31 -49 -61 -44 -48 -50 -51 -66
-38 -25 20 -75 90 -75 104 0 6 17 21 38 33 l37 21 3 -36 c2 -21 8 -41 13 -46z
m-309 2 c-3 -14 -2 -19 6 -14 7 4 12 14 12 22 0 27 15 14 33 -28 l17 -42 -44
-44 c-43 -44 -44 -44 -55 -23 -7 12 -15 44 -18 71 -5 44 -3 52 18 69 28 23 39
19 31 -11z m658 7 c22 -23 22 -27 10 -85 -14 -67 -24 -72 -69 -35 -41 35 -46
57 -22 102 l19 38 17 -35 16 -35 -6 38 c-7 43 2 47 35 12z m-477 -57 l3 -33 9
33 c9 36 19 33 56 -19 l20 -28 -42 -46 c-23 -25 -45 -45 -50 -45 -15 0 -69 82
-69 104 0 18 44 65 62 66 4 0 8 -15 11 -32z m253 -16 l12 -37 1 43 c1 23 4 42
9 42 14 -1 62 -49 62 -63 0 -17 -57 -107 -68 -107 -10 0 -92 83 -92 94 0 12
54 74 60 69 3 -3 10 -21 16 -41z m-1486 -32 l55 -49 -60 -60 c-49 -51 -65 -61
-93 -61 -18 0 -42 -5 -54 -11 -17 -9 -27 -4 -68 30 -27 23 -54 41 -60 41 -24
0 0 27 81 92 106 84 123 86 199 18z m2928 -23 c92 -71 93 -72 70 -87 -13 -8
-40 -30 -61 -49 -33 -30 -41 -33 -58 -23 -10 7 -35 12 -56 12 -32 0 -44 7 -90
58 -29 31 -53 62 -52 67 1 19 104 94 129 94 16 1 57 -24 118 -72z m-1812 -18
c3 -22 6 -22 13 0 6 23 7 22 35 -19 l28 -42 -38 -39 c-45 -46 -58 -48 -72 -11
-25 62 -25 82 -2 108 22 23 33 24 36 3z m234 -16 c0 -21 5 -45 10 -53 7 -11
10 -5 10 25 0 65 11 70 54 26 23 -23 36 -46 33 -54 -3 -8 -26 -31 -51 -52
l-46 -37 -37 33 c-69 60 -71 65 -27 110 21 21 42 39 46 39 4 0 8 -17 8 -37z
m260 21 c6 17 8 17 34 -6 l28 -24 -17 -57 c-9 -31 -20 -59 -24 -62 -11 -6 -91
64 -91 80 0 8 10 29 23 48 18 29 24 32 31 19 8 -14 10 -14 16 2z m-584 -52
c21 -14 22 -67 3 -141 -10 -41 -17 -77 -14 -79 7 -8 9 -3 29 61 l17 58 20 -25
c10 -13 19 -30 19 -38 0 -27 -49 -201 -59 -211 -11 -11 -128 7 -143 22 -4 3
10 60 31 126 22 66 46 146 55 178 17 57 22 63 42 49z m704 -14 c17 -44 100
-316 100 -331 0 -23 -138 -47 -151 -26 -4 8 -19 61 -33 119 -24 103 -24 105
-6 122 11 10 21 18 24 18 2 0 12 -26 22 -57 23 -72 31 -43 10 31 -19 63 -20
85 -6 120 12 32 27 33 40 4z m-1977 -55 c16 -16 16 -17 -5 -40 -28 -30 -44
-29 -52 5 -3 15 -8 37 -12 50 -6 21 -5 22 22 12 16 -6 37 -19 47 -27z m3280
-21 c-9 -23 -19 -42 -22 -42 -10 1 -51 38 -51 47 0 8 33 33 60 44 26 11 31 -6
13 -49z m-1753 13 l33 -34 -27 -39 c-15 -22 -37 -49 -50 -61 l-24 -22 -30 37
c-45 54 -49 81 -16 115 33 35 44 36 45 7 1 -21 2 -21 12 5 6 15 14 27 17 27 3
0 21 -16 40 -35z m220 11 c0 -14 5 -28 10 -31 6 -4 10 6 10 22 l0 28 36 -37
37 -36 -26 -44 c-43 -75 -48 -75 -101 -17 -25 28 -46 57 -46 64 0 17 51 72 68
74 6 0 12 -10 12 -23z m-1154 -97 c302 -182 631 -269 1019 -269 385 0 723 92
1028 278 37 23 74 42 82 42 21 0 102 -76 132 -122 13 -21 30 -38 38 -38 29 0
14 -15 -58 -62 -297 -191 -586 -291 -964 -332 -530 -59 -1038 52 -1462 318
-100 62 -103 66 -79 75 15 5 29 19 33 30 9 28 112 131 131 131 9 0 54 -23 100
-51z m1004 -19 c0 -21 5 -42 10 -45 6 -4 10 6 10 22 0 35 10 73 19 73 8 -1 71
-87 71 -97 0 -13 -84 -93 -96 -93 -6 0 -33 20 -59 45 l-48 44 28 38 c16 21 33
44 38 50 15 21 27 4 27 -37z m-187 -37 c18 -26 24 -47 22 -68 -3 -16 -2 -22 1
-13 3 9 17 24 30 33 24 16 27 15 40 -2 27 -37 4 -139 -31 -136 -159 15 -157
14 -150 31 4 10 16 56 28 105 12 48 24 87 28 87 3 0 18 -17 32 -37z m464 -66
c12 -51 22 -95 23 -99 0 -5 -67 -15 -154 -22 -16 -1 -22 9 -32 54 -11 47 -11
58 2 78 8 12 18 22 22 22 13 -1 42 -27 42 -38 0 -6 5 -14 11 -18 8 -4 9 3 4
25 -5 26 -2 39 20 67 15 19 30 33 33 29 3 -3 16 -47 29 -98z m-287 -62 l23
-24 19 24 c11 14 25 25 33 25 13 0 37 -75 27 -85 -3 -3 -41 -5 -85 -5 l-79 0
7 37 c11 62 19 66 55 28z m-725 -245 l26 -10 -21 -39 c-11 -22 -24 -42 -30
-46 -5 -3 -10 -11 -10 -16 0 -19 36 10 65 51 24 35 32 40 54 35 14 -4 30 -10
34 -14 12 -12 -82 -145 -127 -181 -48 -38 -135 -64 -188 -57 -22 3 -42 7 -44
10 -3 3 13 24 35 48 40 43 84 104 135 187 28 45 32 47 71 32z m1570 -37 c35
-60 99 -148 139 -191 26 -27 28 -34 16 -42 -41 -26 -157 3 -226 55 -35 26
-124 150 -124 171 0 6 14 14 32 18 24 5 34 2 41 -9 14 -26 69 -86 74 -81 3 2
-7 24 -21 49 -32 53 -32 55 -3 67 38 15 44 12 72 -37z m-1362 -41 c-2 -12 -15
-41 -29 -63 l-26 -42 29 21 c16 11 38 37 48 56 16 30 25 36 52 36 41 0 42 -12
5 -71 -65 -102 -166 -164 -288 -176 l-59 -6 68 72 c67 71 137 169 137 191 0 7
13 10 33 8 26 -2 32 -7 30 -26z m1165 -24 c33 -58 129 -175 156 -190 35 -19
17 -31 -39 -24 -111 13 -203 66 -266 155 -48 67 -51 91 -9 91 22 0 33 -7 44
-27 8 -16 31 -44 51 -63 l37 -35 -36 67 c-38 68 -37 75 11 77 15 1 29 -13 51
-51z m-958 2 c0 -5 -16 -36 -34 -69 -19 -34 -31 -61 -26 -61 11 0 67 65 85
100 12 23 22 30 45 30 35 0 37 -8 11 -58 -53 -105 -159 -180 -264 -190 l-62
-5 40 45 c22 25 56 73 75 107 19 33 42 74 51 89 14 24 22 28 48 24 17 -2 31
-8 31 -12z m777 -69 c23 -43 64 -102 90 -131 l48 -53 -60 5 c-113 10 -202 71
-264 180 -17 29 -31 56 -31 61 0 4 15 7 33 7 26 0 36 -6 45 -24 12 -27 83
-109 88 -103 2 2 -9 28 -26 58 -36 65 -37 77 -7 81 35 6 40 2 84 -81z m-582
37 c-4 -13 -16 -43 -26 -67 -11 -24 -17 -46 -15 -48 7 -7 54 60 71 100 13 31
20 37 45 37 39 0 42 -9 23 -66 -44 -131 -130 -201 -258 -212 -36 -2 -65 -2
-65 2 0 4 22 36 49 71 27 35 64 95 83 134 31 65 35 70 66 70 30 1 33 -1 27
-21z m249 -25 c22 -42 69 -103 81 -103 2 0 -10 26 -26 58 -38 74 -38 92 0 92
27 0 33 -7 67 -76 21 -41 59 -101 85 -134 26 -32 45 -61 42 -64 -11 -11 -79
-6 -132 10 -87 26 -171 120 -195 217 -8 35 -1 47 29 47 19 0 30 -11 49 -47z"/>
<path d="M2766 7450 c44 -33 54 -36 54 -16 0 8 -18 21 -40 30 -57 23 -59 20
-14 -14z"/>
<path d="M2711 7406 c9 -9 80 -56 84 -56 3 0 5 6 5 13 0 7 -16 21 -35 30 -33
16 -64 23 -54 13z"/>
<path d="M2860 7338 c0 -32 9 -58 21 -58 10 0 0 61 -12 75 -5 5 -9 -2 -9 -17z"/>
<path d="M3078 7320 c47 -34 52 -35 52 -17 0 7 -16 21 -35 30 -55 26 -62 20
-17 -13z"/>
<path d="M2710 7334 c0 -8 25 -23 68 -41 6 -3 12 2 12 10 0 8 -11 18 -24 21
-13 3 -31 9 -40 12 -9 3 -16 2 -16 -2z"/>
<path d="M3066 7260 c43 -33 54 -36 54 -17 0 7 -18 20 -40 30 -56 24 -59 21
-14 -13z"/>
<path d="M2690 7263 c8 -3 32 -14 52 -24 21 -11 39 -15 43 -9 8 12 -21 26 -70
33 -22 4 -33 4 -25 0z"/>
<path d="M2846 7231 c-8 -13 19 -61 34 -61 13 0 13 17 -1 25 -6 4 -14 16 -18
28 -5 14 -10 17 -15 8z"/>
<path d="M3030 7213 c1 -14 74 -43 84 -33 9 9 -5 17 -61 34 -13 4 -23 4 -23
-1z"/>
<path d="M2719 7185 c18 -8 43 -15 55 -15 21 1 21 1 2 15 -11 8 -36 15 -55 15
l-36 -1 34 -14z"/>
<path d="M2837 7143 c-10 -16 8 -59 27 -66 14 -6 15 -3 2 21 -7 15 -15 34 -18
42 -3 9 -7 10 -11 3z"/>
<path d="M3020 7134 c8 -3 24 -9 35 -14 40 -16 54 -19 60 -10 8 13 -4 17 -60
24 -27 3 -43 3 -35 0z"/>
<path d="M2706 7121 c5 -5 24 -12 42 -16 25 -5 32 -3 32 9 0 12 -10 16 -42 16
-25 0 -38 -4 -32 -9z"/>
<path d="M3055 7062 c28 -11 54 -17 58 -14 17 9 -10 22 -58 27 l-50 6 50 -19z"/>
<path d="M2690 7062 c0 -11 88 -27 98 -18 10 11 -7 18 -53 23 -27 4 -45 2 -45
-5z"/>
<path d="M2848 7020 c-8 -26 13 -70 34 -70 7 0 5 7 -5 18 -8 9 -17 31 -19 47
-3 29 -3 30 -10 5z"/>
<path d="M3055 7005 c46 -17 75 -19 75 -6 0 11 -36 21 -80 20 l-35 0 40 -14z"/>
<path d="M2730 6976 c47 -13 64 -11 55 5 -4 5 -27 9 -53 8 l-47 -1 45 -12z"/>
<path d="M3074 6945 c50 -14 71 -12 61 6 -4 5 -30 9 -58 8 l-52 -1 49 -13z"/>
<path d="M2725 6919 c55 -11 75 -11 75 1 0 6 -25 9 -57 9 -57 -1 -58 -1 -18
-10z"/>
<path d="M2860 6902 c0 -21 30 -52 51 -52 8 0 5 6 -9 16 -12 8 -22 21 -22 29
0 8 -4 17 -10 20 -5 3 -10 -2 -10 -13z"/>
<path d="M3075 6890 c-4 -6 10 -10 34 -10 23 0 41 5 41 10 0 6 -15 10 -34 10
-19 0 -38 -4 -41 -10z"/>
<path d="M2730 6860 c-11 -7 -2 -10 33 -10 30 0 46 4 42 10 -8 13 -55 13 -75
0z"/>
<path d="M3090 6830 c-31 -7 -28 -8 23 -9 37 -1 56 3 52 9 -7 11 -23 11 -75 0z"/>
<path d="M2760 6805 l-45 -13 58 -1 c41 -1 57 3 55 11 -6 17 -17 18 -68 3z"/>
<path d="M2890 6818 c-1 -20 22 -58 41 -68 22 -12 21 -4 -3 25 -5 6 -15 19
-23 30 -8 11 -15 17 -15 13z"/>
<path d="M3133 6789 c-44 -13 -41 -19 7 -19 29 0 40 4 40 15 0 17 -2 17 -47 4z"/>
<path d="M2803 6746 c-45 -14 -42 -28 5 -20 43 8 49 11 36 22 -5 4 -24 3 -41
-2z"/>
<path d="M3147 6733 c-26 -15 -45 -28 -44 -30 6 -5 96 28 102 37 12 20 -14 17
-58 -7z"/>
<path d="M2940 6706 c0 -19 30 -56 46 -56 20 0 18 4 -16 38 -16 17 -30 25 -30
18z"/>
<path d="M3182 6689 c-24 -17 -41 -33 -39 -35 8 -8 97 48 91 57 -7 12 -4 13
-52 -22z"/>
<path d="M2825 6682 c-16 -10 -32 -18 -34 -19 -2 -2 -2 -6 2 -9 9 -10 77 19
77 33 0 16 -7 15 -45 -5z"/>
<path d="M3200 6640 c-19 -16 -32 -30 -28 -30 14 0 98 44 98 52 0 17 -37 6
-70 -22z"/>
<path d="M2853 6621 c-31 -15 -43 -31 -24 -31 22 0 81 32 76 40 -8 12 -12 11
-52 -9z"/>
<path d="M3250 6603 l-35 -36 45 25 c25 15 44 30 43 34 -4 19 -21 12 -53 -23z"/>
<path d="M3021 6607 c7 -15 21 -29 31 -33 30 -9 28 -1 -9 30 l-34 29 12 -26z"/>
<path d="M2895 6549 c-32 -25 -35 -30 -15 -24 44 13 81 36 75 45 -9 15 -16 12
-60 -21z"/>
<path d="M3110 6531 c0 -11 40 -41 55 -41 5 0 -2 11 -17 25 -29 27 -38 30 -38
16z"/>
<path d="M2940 6495 c-19 -19 -30 -35 -25 -35 17 0 85 52 79 61 -9 15 -19 10
-54 -26z"/>
<path d="M2983 6435 c-20 -19 -32 -35 -28 -35 14 0 85 52 85 61 0 18 -22 8
-57 -26z"/>
<path d="M3040 6395 c-19 -19 -31 -35 -27 -35 16 0 86 53 81 61 -9 15 -19 10
-54 -26z"/>
<path d="M3107 6368 c-50 -68 -47 -78 7 -20 20 20 36 40 36 45 0 17 -21 5 -43
-25z"/>
<path d="M3160 6315 c-17 -25 -29 -45 -26 -45 8 0 76 74 76 83 0 19 -22 3 -50
-38z"/>
<path d="M3222 6303 c-35 -52 -35 -58 1 -24 37 35 46 51 28 51 -5 0 -18 -12
-29 -27z"/>
<path d="M2298 6313 c6 -2 18 -2 25 0 6 3 1 5 -13 5 -14 0 -19 -2 -12 -5z"/>
<path d="M2758 5903 c6 -2 18 -2 25 0 6 3 1 5 -13 5 -14 0 -19 -2 -12 -5z"/>
<path d="M2898 5823 c6 -2 18 -2 25 0 6 3 1 5 -13 5 -14 0 -19 -2 -12 -5z"/>
<path d="M5537 7459 c-21 -11 -35 -24 -31 -30 5 -10 20 -3 79 38 31 21 -4 15
-48 -8z"/>
<path d="M5558 7389 c-34 -17 -50 -39 -30 -39 9 0 82 49 82 55 0 9 -15 4 -52
-16z"/>
<path d="M5451 7342 c-1 -13 -6 -32 -12 -44 -16 -29 -3 -34 15 -5 12 18 14 30
7 48 l-10 24 0 -23z"/>
<path d="M5228 7329 c-34 -17 -50 -39 -30 -39 9 0 82 49 82 55 0 9 -15 4 -52
-16z"/>
<path d="M5580 7331 c-24 -10 -46 -23 -48 -30 -6 -19 16 -12 66 19 53 34 48
37 -18 11z"/>
<path d="M5236 7269 c-26 -14 -35 -24 -28 -31 7 -7 22 -2 46 17 54 41 46 47
-18 14z"/>
<path d="M5587 7260 c-41 -8 -51 -14 -46 -29 2 -5 28 1 59 14 56 25 53 28 -13
15z"/>
<path d="M5452 7200 c-24 -31 -15 -41 12 -14 14 13 22 44 13 44 -2 0 -13 -13
-25 -30z"/>
<path d="M5243 7207 c-18 -6 -33 -17 -33 -25 0 -7 3 -12 8 -10 4 2 24 10 45
18 20 8 37 18 37 22 0 10 -15 8 -57 -5z"/>
<path d="M5558 7193 c-10 -2 -18 -9 -18 -14 0 -12 28 -10 70 6 l35 13 -35 0
c-19 0 -43 -2 -52 -5z"/>
<path d="M5463 7110 c-23 -43 -17 -53 11 -21 10 11 16 29 14 40 -2 17 -7 14
-25 -19z"/>
<path d="M5238 7133 c-16 -3 -28 -11 -28 -19 0 -16 15 -14 74 12 29 12 29 13
6 12 -14 0 -37 -3 -52 -5z"/>
<path d="M5547 7123 c-16 -16 -4 -24 26 -18 48 10 57 25 16 25 -20 0 -39 -3
-42 -7z"/>
<path d="M5233 7073 c-13 -2 -23 -11 -23 -18 0 -14 23 -10 80 13 l25 11 -30
-1 c-16 0 -40 -3 -52 -5z"/>
<path d="M5550 7060 c-8 -5 -12 -11 -9 -14 9 -9 99 5 99 15 0 12 -71 11 -90
-1z"/>
<path d="M5463 7024 c3 -4 0 -22 -8 -40 -14 -35 -9 -44 13 -22 15 15 16 68 0
68 -6 0 -9 -3 -5 -6z"/>
<path d="M5218 7013 c-10 -2 -18 -9 -18 -15 0 -10 9 -9 80 10 l35 10 -40 0
c-22 0 -48 -2 -57 -5z"/>
<path d="M5540 6980 c0 -12 34 -12 70 0 20 7 16 8 -22 9 -27 1 -48 -3 -48 -9z"/>
<path d="M5195 6951 c-10 -18 11 -20 61 -6 l49 13 -52 1 c-28 1 -54 -3 -58 -8z"/>
<path d="M5530 6920 c0 -7 19 -8 53 -4 70 9 72 14 4 14 -33 0 -57 -4 -57 -10z"/>
<path d="M5428 6878 c-15 -16 -21 -28 -14 -28 20 0 48 25 45 41 -3 10 -11 7
-31 -13z"/>
<path d="M5180 6890 c0 -5 18 -10 41 -10 24 0 38 4 34 10 -3 6 -22 10 -41 10
-19 0 -34 -4 -34 -10z"/>
<path d="M5520 6860 c0 -5 18 -10 41 -10 24 0 38 4 34 10 -3 6 -22 10 -41 10
-19 0 -34 -4 -34 -10z"/>
<path d="M5160 6830 c0 -6 25 -9 58 -9 56 1 57 1 17 10 -55 11 -75 11 -75 -1z"/>
<path d="M5420 6808 c0 -7 -12 -25 -27 -40 -31 -32 -18 -38 15 -8 19 18 31 60
17 60 -3 0 -5 -5 -5 -12z"/>
<path d="M5507 6813 c-17 -16 -3 -23 51 -22 l57 0 -50 14 c-27 8 -50 14 -51
15 0 0 -4 -3 -7 -7z"/>
<path d="M5147 6793 c-16 -15 -4 -23 36 -23 28 1 37 3 27 9 -26 15 -56 22 -63
14z"/>
<path d="M5120 6747 c0 -13 67 -43 76 -34 5 5 -58 47 -70 47 -3 0 -6 -6 -6
-13z"/>
<path d="M5480 6745 c0 -11 41 -25 71 -25 24 0 4 17 -31 27 -31 8 -40 7 -40
-2z"/>
<path d="M5352 6684 c-21 -22 -27 -34 -18 -34 18 0 56 39 56 57 0 17 0 17 -38
-23z"/>
<path d="M5094 6701 c9 -14 86 -52 86 -42 0 11 -62 51 -79 51 -7 0 -10 -4 -7
-9z"/>
<path d="M5455 6690 c-7 -12 60 -43 78 -37 7 2 -7 14 -30 25 -26 14 -44 18
-48 12z"/>
<path d="M5060 6662 c0 -8 83 -52 97 -52 4 0 -11 13 -33 30 -38 29 -64 38 -64
22z"/>
<path d="M5020 6630 c0 -12 78 -65 86 -58 5 6 -68 68 -80 68 -3 0 -6 -4 -6
-10z"/>
<path d="M5420 6630 c0 -11 69 -42 83 -37 11 3 -58 47 -74 47 -5 0 -9 -4 -9
-10z"/>
<path d="M5276 6598 c-21 -20 -24 -28 -12 -28 14 0 54 47 45 53 -2 1 -17 -10
-33 -25z"/>
<path d="M6168 6613 c7 -3 16 -2 19 1 4 3 -2 6 -13 5 -11 0 -14 -3 -6 -6z"/>
<path d="M5370 6570 c0 -11 79 -54 86 -47 6 6 -62 57 -75 57 -6 0 -11 -4 -11
-10z"/>
<path d="M5188 6527 c-16 -13 -28 -26 -28 -30 0 -13 39 13 50 33 13 25 12 25
-22 -3z"/>
<path d="M5330 6521 c0 -9 32 -34 68 -55 22 -13 13 2 -20 33 -34 32 -48 38
-48 22z"/>
<path d="M5280 6462 c0 -4 10 -13 23 -21 74 -46 73 -46 38 -8 -32 34 -61 48
-61 29z"/>
<path d="M5230 6421 c0 -5 12 -18 28 -29 51 -35 57 -35 23 1 -35 37 -51 46
-51 28z"/>
<path d="M5180 6387 c0 -7 16 -28 35 -47 42 -40 45 -34 9 20 -27 40 -44 51
-44 27z"/>
<path d="M5116 6352 c-3 -5 13 -26 36 -48 l41 -39 -25 45 c-26 45 -42 58 -52
42z"/>
<path d="M5060 6322 c0 -4 16 -23 35 -42 40 -39 45 -32 13 17 -21 30 -48 44
-48 25z"/>
<path d="M6003 6313 c9 -2 23 -2 30 0 6 3 -1 5 -18 5 -16 0 -22 -2 -12 -5z"/>
<path d="M5408 5823 c6 -2 18 -2 25 0 6 3 1 5 -13 5 -14 0 -19 -2 -12 -5z"/>
<path d="M3940 8232 c-22 -10 -100 -64 -100 -69 0 -8 45 9 70 27 14 10 48 24
75 33 l50 15 -40 0 c-22 0 -47 -2 -55 -6z"/>
<path d="M4180 8188 c-25 -11 -25 -11 -2 -15 25 -5 29 -25 7 -43 -25 -21 -18
-42 12 -38 36 4 40 -16 8 -48 -21 -21 -24 -29 -13 -35 7 -5 19 -9 26 -9 22 0
13 -19 -13 -26 -30 -7 -30 -11 -8 -37 15 -16 16 -20 3 -28 -37 -21 -42 -27
-36 -38 6 -9 40 3 95 36 2 2 -4 12 -13 22 -17 19 -17 21 3 42 25 27 26 38 6
53 -12 9 -13 18 -6 44 10 34 6 62 -10 62 -5 0 -9 16 -9 35 0 38 -8 41 -50 23z"/>
<path d="M3920 8165 c-14 -8 -40 -22 -57 -31 -18 -10 -33 -21 -33 -25 0 -4 16
-21 37 -38 l36 -30 -24 -10 c-13 -5 -33 -13 -44 -17 -18 -7 -19 -7 -2 -11 10
-3 36 2 58 11 76 31 123 12 117 -48 -3 -32 -10 -36 -117 -65 -13 -3 -27 -13
-29 -21 -4 -12 -2 -13 9 -4 8 7 38 15 66 19 69 9 103 36 103 80 0 39 -37 75
-78 75 l-25 0 20 23 c37 40 40 107 4 107 -9 0 -27 -7 -41 -15z m40 -31 c0 -47
-52 -73 -80 -39 -8 9 -8 15 -2 15 6 0 19 3 29 6 15 5 15 4 3 -5 -8 -5 -11 -13
-8 -16 12 -12 28 6 28 31 0 15 6 24 15 24 8 0 15 -7 15 -16z"/>
<path d="M3695 8130 c3 -5 22 -10 41 -10 28 0 34 -4 34 -22 0 -20 2 -21 15 -7
28 28 8 49 -47 49 -30 0 -47 -4 -43 -10z"/>
<path d="M3601 8094 c-42 -35 -33 -42 14 -10 38 26 55 26 55 0 0 -9 6 -14 13
-11 6 2 12 12 12 23 0 32 -56 31 -94 -2z"/>
<path d="M4100 8041 c7 -13 9 -37 6 -54 -6 -29 -5 -30 8 -12 21 28 20 49 -5
71 -22 19 -22 19 -9 -5z"/>
<path d="M3625 6500 c3 -5 10 -10 16 -10 5 0 9 5 9 10 0 6 -7 10 -16 10 -8 0
-12 -4 -9 -10z"/>
<path d="M3670 5936 c-11 -11 8 -53 26 -60 8 -3 19 4 25 15 8 15 17 19 34 15
18 -5 24 -1 28 19 4 25 3 26 -50 23 -30 -2 -58 -7 -63 -12z"/>
<path d="M3793 5850 c-13 -5 -23 -7 -23 -5 0 9 -64 -31 -67 -42 -3 -7 6 -22
18 -34 l21 -21 22 27 c13 16 29 26 41 23 14 -2 20 5 26 30 7 34 1 38 -38 22z"/>
<path d="M3857 5745 c-11 -8 -25 -11 -33 -8 -8 3 -14 1 -14 -5 0 -5 -13 -15
-30 -22 -36 -15 -37 -20 -7 -48 32 -30 65 -29 73 3 3 14 12 25 19 25 20 0 25
13 17 43 -6 23 -9 24 -25 12z"/>
<path d="M3930 5651 c-13 -9 -37 -28 -54 -43 l-29 -27 24 -20 c33 -28 43 -26
56 10 7 17 21 33 32 36 24 6 25 10 8 39 -11 21 -13 21 -37 5z"/>
<path d="M4023 5565 c-18 -11 -32 -26 -33 -32 0 -7 -8 -13 -19 -13 -25 0 -33
-35 -12 -54 10 -9 36 -16 59 -16 22 0 44 -4 47 -10 10 -15 35 -12 35 5 0 8 -4
15 -10 15 -5 0 -10 17 -10 39 0 21 -6 49 -12 63 l-13 24 -32 -21z"/>
<path d="M4475 5780 c-9 -15 4 -50 19 -50 16 0 41 28 33 37 -4 3 -15 0 -24 -8
-15 -11 -16 -11 -5 1 6 8 12 18 12 22 0 12 -28 10 -35 -2z"/>
<path d="M3194 5082 c5 -41 3 -53 -19 -82 -32 -44 -23 -52 16 -14 28 26 30 33
25 74 -8 69 -9 70 -19 70 -6 0 -7 -20 -3 -48z"/>
<path d="M2930 4775 c-20 -24 -7 -26 25 -5 27 18 28 20 9 20 -12 0 -27 -7 -34
-15z"/>
<path d="M5120 5121 c0 -11 -5 -31 -11 -45 -14 -30 2 -79 35 -101 34 -25 38
-17 10 20 -23 31 -26 41 -20 84 4 30 2 52 -4 56 -5 3 -10 -3 -10 -14z"/>
<path d="M5371 4771 c14 -11 26 -15 28 -9 4 12 -17 28 -38 28 -8 0 -3 -8 10
-19z"/>
<path d="M3635 4641 c-3 -5 -1 -12 5 -16 5 -3 10 1 10 9 0 18 -6 21 -15 7z"/>
<path d="M4691 4604 c0 -11 3 -14 6 -6 3 7 2 16 -1 19 -3 4 -6 -2 -5 -13z"/>
<path d="M3032 4522 c-23 -47 -24 -52 -14 -52 6 0 14 9 17 20 8 25 29 15 22
-11 -3 -11 -1 -19 4 -19 5 0 9 10 9 23 0 13 5 28 12 35 9 9 9 12 0 12 -7 0
-12 -4 -12 -10 0 -5 -4 -10 -10 -10 -14 0 -12 27 3 33 8 4 7 6 -3 6 -8 1 -21
-11 -28 -27z"/>
<path d="M5240 4533 c0 -9 62 -63 73 -63 13 0 7 10 -25 40 -33 29 -48 37 -48
23z"/>
<path d="M3137 4466 c-23 -53 -21 -68 4 -27 11 18 18 41 16 50 -2 10 -9 3 -20
-23z"/>
<path d="M5132 4435 c12 -24 25 -42 30 -39 5 3 4 12 -3 20 -15 18 -3 32 13 16
14 -14 42 -16 33 -3 -3 5 -19 12 -36 16 -17 4 -33 13 -36 21 -3 8 -9 14 -14
14 -5 0 1 -20 13 -45z"/>
<path d="M3194 4435 c-16 -40 -17 -45 -5 -45 5 0 11 8 15 18 3 9 10 27 16 40
6 15 6 22 -1 22 -5 0 -17 -16 -25 -35z"/>
<path d="M5041 4446 c-2 -18 23 -86 31 -86 4 0 8 3 7 8 -1 13 -37 87 -38 78z"/>
<path d="M3282 4413 c-5 -16 -13 -36 -17 -45 -4 -10 -3 -18 3 -18 6 0 13 13
17 30 4 16 11 32 16 35 12 8 12 25 0 25 -5 0 -14 -12 -19 -27z"/>
<path d="M3361 4383 c-10 -22 -10 -25 0 -16 10 10 16 4 32 -30 11 -23 21 -37
24 -30 2 6 -6 32 -19 58 l-24 46 -13 -28z"/>
<path d="M4888 4335 c9 -25 20 -45 25 -45 5 0 6 8 2 18 -4 9 -12 29 -17 45 -5
15 -14 27 -18 27 -5 0 -2 -20 8 -45z"/>
<path d="M3505 4341 c-3 -6 0 -13 7 -18 7 -4 19 -20 27 -35 8 -16 18 -28 23
-28 14 0 9 20 -12 42 -11 12 -20 28 -20 35 0 15 -16 17 -25 4z"/>
<path d="M4780 4336 c0 -15 50 -69 58 -62 4 5 -47 76 -54 76 -2 0 -4 -6 -4
-14z"/>
<path d="M3581 4324 c0 -11 3 -14 6 -6 3 7 2 16 -1 19 -3 4 -6 -2 -5 -13z"/>
<path d="M3658 4310 c-3 -8 -10 -30 -16 -47 -5 -18 -7 -33 -2 -33 11 0 33 67
27 83 -3 8 -6 8 -9 -3z"/>
<path d="M3491 4284 c0 -11 3 -14 6 -6 3 7 2 16 -1 19 -3 4 -6 -2 -5 -13z"/>
<path d="M3760 4295 c0 -5 -5 -29 -9 -52 -9 -44 2 -60 13 -20 6 22 6 22 23 -5
10 -16 21 -28 26 -28 5 0 -1 14 -13 30 -12 17 -26 43 -30 58 -5 15 -9 23 -10
17z"/>
<path d="M4620 4275 c0 -25 15 -49 27 -44 6 2 2 18 -8 34 -16 25 -19 26 -19
10z"/>
<path d="M4700 4255 c0 -15 4 -24 10 -20 6 3 10 12 10 20 0 8 -4 17 -10 20 -6
4 -10 -5 -10 -20z"/>
<path d="M3896 4253 c-4 -9 -2 -19 3 -22 5 -4 13 -19 16 -34 4 -15 11 -27 16
-27 12 0 11 3 -3 37 -6 15 -10 33 -9 40 3 19 -16 24 -23 6z"/>
<path d="M4412 4250 c0 -14 2 -19 5 -12 2 6 2 18 0 25 -3 6 -5 1 -5 -13z"/>
<path d="M4480 4247 c0 -24 17 -47 34 -47 6 0 5 5 -2 12 -7 7 -12 22 -12 35 0
13 -4 23 -10 23 -5 0 -10 -10 -10 -23z"/>
<path d="M4097 4253 c-11 -10 -8 -93 3 -93 6 0 10 23 10 50 0 51 -1 55 -13 43z"/>
<path d="M4263 4215 c0 -27 2 -38 4 -22 2 15 2 37 0 50 -2 12 -4 0 -4 -28z"/>
<path d="M4336 4252 c-2 -4 -1 -14 5 -22 5 -8 9 -11 9 -6 0 4 16 -4 35 -18 27
-21 35 -23 35 -12 0 9 -7 16 -15 16 -8 0 -15 3 -15 8 -1 12 -48 43 -54 34z"/>
<path d="M4196 4213 c8 -46 12 -53 27 -52 9 0 9 2 0 6 -8 2 -13 22 -13 44 0
21 -5 39 -10 39 -7 0 -8 -14 -4 -37z"/>
<path d="M4560 4219 c0 -11 4 -18 10 -14 5 3 7 12 3 20 -7 21 -13 19 -13 -6z"/>
<path d="M7415 8480 l0 -200 862 0 862 0 48 -25 c57 -29 130 -107 138 -147 4
-15 11 -30 16 -33 11 -8 12 -142 0 -149 -4 -3 -11 -18 -14 -34 -7 -32 -92
-132 -113 -132 -8 0 -14 -4 -14 -9 0 -5 -29 -16 -65 -25 -57 -14 -162 -16
-892 -16 l-828 0 0 -197 0 -198 879 -5 c691 -4 880 -8 884 -17 2 -7 9 -13 16
-13 14 0 51 -27 75 -54 9 -10 23 -26 31 -35 28 -29 50 -105 50 -168 0 -34 -4
-64 -9 -67 -4 -3 -11 -19 -14 -35 -7 -32 -107 -141 -130 -141 -8 0 -17 -6 -19
-12 -4 -10 -193 -14 -884 -18 l-879 -5 0 -198 0 -198 906 3 c657 2 910 6 920
14 8 7 30 15 49 19 38 8 39 9 130 61 121 70 240 211 285 339 9 28 22 61 29 74
16 35 15 326 -1 343 -7 6 -13 21 -13 33 -1 11 -9 38 -20 60 -11 22 -19 46 -20
53 0 6 -3 12 -8 12 -4 0 -16 17 -27 37 -11 20 -35 53 -52 73 -18 19 -33 40
-33 45 0 6 14 24 30 42 17 18 30 34 30 37 0 3 13 24 29 48 36 53 71 131 71
155 0 11 6 25 13 32 16 16 17 321 1 342 -7 8 -15 30 -19 49 -15 69 -111 220
-177 278 -17 15 -36 32 -42 37 -27 23 -76 55 -86 55 -5 0 -10 5 -10 10 0 6 -6
10 -12 10 -7 1 -31 9 -53 20 -22 11 -47 19 -56 20 -8 0 -21 6 -27 13 -10 9
-212 13 -925 15 l-912 3 0 -201z"/>
<path d="M7976 6102 c-3 -5 -26 -12 -51 -15 -24 -4 -53 -11 -62 -16 -10 -5
-40 -20 -68 -32 -64 -29 -113 -63 -185 -129 -50 -45 -160 -233 -160 -272 0 -8
-6 -20 -12 -26 -10 -10 -14 -212 -16 -927 l-3 -915 201 0 200 0 0 866 c0 866
0 867 21 910 36 71 118 144 163 144 9 0 16 5 16 10 0 13 147 13 155 1 3 -5 18
-12 34 -16 35 -8 121 -86 147 -135 18 -33 19 -74 22 -907 l2 -873 205 0 205 0
2 878 3 877 32 50 c17 28 42 57 54 65 12 8 27 21 35 28 7 7 27 15 43 18 17 4
31 10 31 15 0 12 147 12 154 0 3 -5 17 -12 32 -15 29 -8 43 -17 88 -62 45 -45
54 -59 62 -88 3 -15 10 -29 15 -32 5 -3 9 -376 9 -870 l0 -864 200 0 200 0 0
873 c-1 483 -5 890 -10 912 -21 91 -34 135 -41 135 -4 0 -10 12 -13 26 -26
102 -213 291 -332 334 -16 6 -38 15 -49 20 -65 30 -331 54 -358 32 -7 -5 -31
-12 -55 -16 -24 -3 -51 -10 -60 -15 -9 -5 -39 -20 -67 -32 -56 -25 -95 -51
-140 -91 -38 -35 -47 -35 -82 0 -25 25 -145 102 -160 102 -3 0 -19 6 -36 14
-18 8 -54 20 -82 27 -62 15 -281 24 -289 11z"/>
</g>
</svg>
